<?xml version="1.0" encoding="UTF-8"?>
<svg version="1.1" xmlns="http://www.w3.org/2000/svg" width="1024" height="1024">
<path d="M0 0 C337.92 0 675.84 0 1024 0 C1024 337.92 1024 675.84 1024 1024 C686.08 1024 348.16 1024 0 1024 C0 686.08 0 348.16 0 0 Z " fill="#111111" transform="translate(0,0)"/>
<path d="M0 0 C0.87732379 -0.00171833 1.75464758 -0.00343666 2.65855694 -0.00520706 C5.61646495 -0.00957195 8.57431763 -0.00656037 11.53222656 -0.00341797 C13.66659058 -0.00460699 15.80095443 -0.00613171 17.93531799 -0.00796509 C25.014508 -0.01178583 32.09366728 -0.00402253 39.17285156 0.00439453 C41.62364702 0.0066691 44.07444251 0.00890686 46.52523804 0.0111084 C61.13088828 0.02570355 75.73647251 0.05534732 90.34207249 0.09494019 C97.74653877 0.11499931 105.151002 0.13355339 112.55548096 0.14831543 C129.70692175 0.18297192 146.85816761 0.2320402 164.00944328 0.31651115 C171.62287742 0.35378012 179.2362172 0.38504249 186.84973145 0.39984131 C193.37698287 0.41266223 199.90399787 0.43945056 206.43111414 0.48380697 C209.78200619 0.50620119 213.13236427 0.52021487 216.48336983 0.52131271 C220.14496509 0.52367177 223.8056103 0.55061053 227.46704102 0.58349609 C229.05169474 0.5759496 229.05169474 0.5759496 230.66836166 0.56825066 C241.07337055 0.71340509 250.89340531 3.66585153 258.42285156 11.12939453 C266.01815171 20.55162656 267.53633672 30.01327425 267.56329346 41.8576355 C267.56775014 42.95986425 267.56775014 42.95986425 267.57229686 44.08436024 C267.58090387 46.52369995 267.58248524 48.96299012 267.58398438 51.40234375 C267.58861809 53.1606761 267.59364349 54.91900744 267.59902954 56.67733765 C267.612099 61.43771375 267.61858736 66.19807578 267.6230402 70.95846701 C267.62597869 73.93624273 267.63008486 76.91401467 267.63454437 79.89178848 C267.64820258 89.21964304 267.65787842 98.54748888 267.66174626 107.87535274 C267.66622831 118.62330418 267.68379011 129.37112852 267.71274686 140.11904132 C267.73438842 148.44201029 267.7444518 156.76494354 267.74578738 165.08794034 C267.74683328 170.05246004 267.75269577 175.01686 267.77060699 179.98134995 C267.78713137 184.65176506 267.78922205 189.32197094 267.78046799 193.99240494 C267.77970005 195.70075289 267.78400804 197.40911231 267.79392624 199.11743164 C267.86376208 211.90133823 267.06807384 223.02142315 258.42285156 233.12939453 C249.4377377 241.55805326 240.88723525 244.29679759 228.68530273 244.24291992 C227.81650482 244.24306595 226.94770691 244.24321198 226.05258179 244.24336243 C223.19030228 244.24266759 220.32808841 244.23489526 217.46582031 244.22705078 C215.47756486 244.22518508 213.48930894 244.22376189 211.50105286 244.22276306 C206.27485885 244.21894988 201.04869276 244.20912981 195.82250977 244.19805908 C190.48682025 244.1878192 185.15112621 244.18325992 179.81542969 244.17822266 C169.35122474 244.16750647 158.88704047 244.15044444 148.42285156 244.12939453 C148.96868031 248.9538531 149.52013836 253.77762145 150.0769043 258.60083008 C150.26564278 260.24290367 150.45282119 261.88515734 150.63842773 263.52758789 C150.90494782 265.88362542 151.17700819 268.23896572 151.45019531 270.59423828 C151.53252914 271.33278549 151.61486298 272.0713327 151.69969177 272.83226013 C151.83998906 276.27594374 151.83998906 276.27594374 153.42285156 279.12939453 C156.24700995 279.25263192 159.05047166 279.3155433 161.87597656 279.34033203 C163.62728783 279.36841078 165.37858978 279.39707531 167.12988281 279.42626953 C169.89924766 279.46747886 172.66844057 279.50435247 175.43798828 279.53076172 C178.10518686 279.55842085 180.77158684 279.60430491 183.43847656 279.65283203 C184.67467743 279.65771133 184.67467743 279.65771133 185.93585205 279.66268921 C190.5885107 279.76186281 193.62064327 280.16439457 197.42285156 283.12939453 C200.1748455 286.248321 200.65091237 288.59137666 200.42285156 292.62939453 C199.74577871 297.14321354 198.09896439 299.32854666 194.42285156 302.12939453 C191.20216491 303.20295675 188.87125445 303.26317216 185.48381042 303.27656555 C183.62268867 303.28729851 183.62268867 303.28729851 181.72396851 303.29824829 C180.34649683 303.3010885 178.96902489 303.30380024 177.59155273 303.30639648 C176.14273414 303.31266208 174.69391716 303.31930897 173.24510193 303.3263092 C168.48535275 303.3473387 163.72560329 303.35770981 158.96582031 303.36767578 C157.32685136 303.3717236 155.68788257 303.37584053 154.04891396 303.38002586 C146.34955823 303.39907424 138.65021207 303.41330662 130.95083731 303.42163783 C122.06426543 303.43141261 113.17794247 303.45773973 104.29145831 303.49813873 C97.42171968 303.52829744 90.55205243 303.54310643 83.68224889 303.54641885 C79.57956447 303.54876942 75.47714609 303.55773072 71.3745327 303.58288002 C67.51423579 303.606162 63.65438007 303.61039372 59.79403114 303.60011864 C58.37909604 303.59962321 56.96413921 303.60594591 55.54927063 303.61967468 C42.20240928 303.74191216 42.20240928 303.74191216 37.42285156 299.12939453 C34.7416408 295.10757839 34.60940822 291.85703062 35.42285156 287.12939453 C37.1336313 284.05762273 39.23256463 281.724538 42.42285156 280.12939453 C45.32609107 279.98431669 48.20911129 279.89511667 51.11425781 279.84814453 C51.974702 279.82973511 52.83514618 279.81132568 53.72166443 279.7923584 C57.41253987 279.71351259 61.10360069 279.64579278 64.79467773 279.57714844 C67.4846333 279.52555052 70.17442549 279.46825824 72.86425781 279.41064453 C73.70589981 279.39706909 74.54754181 279.38349365 75.41468811 279.36950684 C79.22939048 279.65332138 79.22939048 279.65332138 82.42285156 278.12939453 C82.78371669 275.78547699 83.08950128 273.45678468 83.36035156 271.10205078 C83.44534912 270.39793564 83.53034668 269.6938205 83.61791992 268.96836853 C83.89032044 266.71001128 84.15715326 264.45104948 84.42285156 262.19189453 C84.68874763 259.93633754 84.95593027 257.6809794 85.2277832 255.4261322 C85.39718312 254.02092579 85.56313523 252.61529869 85.7253418 251.20924377 C86.31021957 246.35465851 86.31021957 246.35465851 87.42285156 244.12939453 C86.27185974 244.13827698 85.12086792 244.14715942 83.93499756 244.15631104 C73.04884401 244.23765781 62.16275273 244.29748476 51.27636337 244.33664322 C45.68053191 244.35745228 40.08494727 244.38564727 34.48925781 244.43115234 C29.08164315 244.47484907 23.67426481 244.4985818 18.26648712 244.5089035 C16.21096328 244.51625228 14.15545129 244.53060195 12.10002899 244.55231476 C-2.61999513 244.70152389 -15.28634531 244.54261011 -26.44433594 233.70751953 C-32.61263199 226.25133749 -34.72675254 217.99956861 -34.72431946 208.54722595 C-34.72799615 207.77977808 -34.73167283 207.01233021 -34.73546094 206.22162634 C-34.7464813 203.64782549 -34.75033885 201.07406504 -34.75415039 198.50024414 C-34.76041639 196.65545524 -34.76706332 194.81066761 -34.77406311 192.96588135 C-34.79509345 186.90450925 -34.80546604 180.84313693 -34.81542969 174.78173828 C-34.81947793 172.69309539 -34.82359487 170.60445263 -34.82777977 168.51581001 C-34.8468309 158.70045844 -34.86106087 148.88511437 -34.86939174 139.06974787 C-34.87915766 127.75121817 -34.90546072 116.43288438 -34.94589263 105.11442369 C-34.97609104 96.35925252 -34.99086424 87.60413738 -34.99417275 78.84891516 C-34.9965194 73.62325284 -35.00542949 68.39779983 -35.03063393 63.17219353 C-35.05398414 58.25145348 -35.05811996 53.3310595 -35.04787254 48.41027832 C-35.04737873 46.61043201 -35.05365343 44.81056827 -35.06742859 43.01077461 C-35.1670782 29.21188083 -34.03371834 18.6885859 -24.02246094 8.29736328 C-16.55268548 1.67479878 -9.77156827 -0.02418011 0 0 Z " fill="#121212" transform="translate(176.5771484375,344.87060546875)"/>
<path d="M0 0 C0.87732379 -0.00171833 1.75464758 -0.00343666 2.65855694 -0.00520706 C5.61646495 -0.00957195 8.57431763 -0.00656037 11.53222656 -0.00341797 C13.66659058 -0.00460699 15.80095443 -0.00613171 17.93531799 -0.00796509 C25.014508 -0.01178583 32.09366728 -0.00402253 39.17285156 0.00439453 C41.62364702 0.0066691 44.07444251 0.00890686 46.52523804 0.0111084 C61.13088828 0.02570355 75.73647251 0.05534732 90.34207249 0.09494019 C97.74653877 0.11499931 105.151002 0.13355339 112.55548096 0.14831543 C129.70692175 0.18297192 146.85816761 0.2320402 164.00944328 0.31651115 C171.62287742 0.35378012 179.2362172 0.38504249 186.84973145 0.39984131 C193.37698287 0.41266223 199.90399787 0.43945056 206.43111414 0.48380697 C209.78200619 0.50620119 213.13236427 0.52021487 216.48336983 0.52131271 C220.14496509 0.52367177 223.8056103 0.55061053 227.46704102 0.58349609 C229.05169474 0.5759496 229.05169474 0.5759496 230.66836166 0.56825066 C241.07337055 0.71340509 250.89340531 3.66585153 258.42285156 11.12939453 C266.01815171 20.55162656 267.53633672 30.01327425 267.56329346 41.8576355 C267.56775014 42.95986425 267.56775014 42.95986425 267.57229686 44.08436024 C267.58090387 46.52369995 267.58248524 48.96299012 267.58398438 51.40234375 C267.58861809 53.1606761 267.59364349 54.91900744 267.59902954 56.67733765 C267.612099 61.43771375 267.61858736 66.19807578 267.6230402 70.95846701 C267.62597869 73.93624273 267.63008486 76.91401467 267.63454437 79.89178848 C267.64820258 89.21964304 267.65787842 98.54748888 267.66174626 107.87535274 C267.66622831 118.62330418 267.68379011 129.37112852 267.71274686 140.11904132 C267.73438842 148.44201029 267.7444518 156.76494354 267.74578738 165.08794034 C267.74683328 170.05246004 267.75269577 175.01686 267.77060699 179.98134995 C267.78713137 184.65176506 267.78922205 189.32197094 267.78046799 193.99240494 C267.77970005 195.70075289 267.78400804 197.40911231 267.79392624 199.11743164 C267.86376208 211.90133823 267.06807384 223.02142315 258.42285156 233.12939453 C249.4377377 241.55805326 240.88723525 244.29679759 228.68530273 244.24291992 C227.81650482 244.24306595 226.94770691 244.24321198 226.05258179 244.24336243 C223.19030228 244.24266759 220.32808841 244.23489526 217.46582031 244.22705078 C215.47756486 244.22518508 213.48930894 244.22376189 211.50105286 244.22276306 C206.27485885 244.21894988 201.04869276 244.20912981 195.82250977 244.19805908 C190.48682025 244.1878192 185.15112621 244.18325992 179.81542969 244.17822266 C169.35122474 244.16750647 158.88704047 244.15044444 148.42285156 244.12939453 C148.96868031 248.9538531 149.52013836 253.77762145 150.0769043 258.60083008 C150.26564278 260.24290367 150.45282119 261.88515734 150.63842773 263.52758789 C150.90494782 265.88362542 151.17700819 268.23896572 151.45019531 270.59423828 C151.53252914 271.33278549 151.61486298 272.0713327 151.69969177 272.83226013 C151.83998906 276.27594374 151.83998906 276.27594374 153.42285156 279.12939453 C156.24700995 279.25263192 159.05047166 279.3155433 161.87597656 279.34033203 C163.62728783 279.36841078 165.37858978 279.39707531 167.12988281 279.42626953 C169.89924766 279.46747886 172.66844057 279.50435247 175.43798828 279.53076172 C178.10518686 279.55842085 180.77158684 279.60430491 183.43847656 279.65283203 C184.67467743 279.65771133 184.67467743 279.65771133 185.93585205 279.66268921 C190.5885107 279.76186281 193.62064327 280.16439457 197.42285156 283.12939453 C200.1748455 286.248321 200.65091237 288.59137666 200.42285156 292.62939453 C199.74577871 297.14321354 198.09896439 299.32854666 194.42285156 302.12939453 C191.20216491 303.20295675 188.87125445 303.26317216 185.48381042 303.27656555 C183.62268867 303.28729851 183.62268867 303.28729851 181.72396851 303.29824829 C180.34649683 303.3010885 178.96902489 303.30380024 177.59155273 303.30639648 C176.14273414 303.31266208 174.69391716 303.31930897 173.24510193 303.3263092 C168.48535275 303.3473387 163.72560329 303.35770981 158.96582031 303.36767578 C157.32685136 303.3717236 155.68788257 303.37584053 154.04891396 303.38002586 C146.34955823 303.39907424 138.65021207 303.41330662 130.95083731 303.42163783 C122.06426543 303.43141261 113.17794247 303.45773973 104.29145831 303.49813873 C97.42171968 303.52829744 90.55205243 303.54310643 83.68224889 303.54641885 C79.57956447 303.54876942 75.47714609 303.55773072 71.3745327 303.58288002 C67.51423579 303.606162 63.65438007 303.61039372 59.79403114 303.60011864 C58.37909604 303.59962321 56.96413921 303.60594591 55.54927063 303.61967468 C42.20240928 303.74191216 42.20240928 303.74191216 37.42285156 299.12939453 C34.7416408 295.10757839 34.60940822 291.85703062 35.42285156 287.12939453 C37.1336313 284.05762273 39.23256463 281.724538 42.42285156 280.12939453 C45.32609107 279.98431669 48.20911129 279.89511667 51.11425781 279.84814453 C51.974702 279.82973511 52.83514618 279.81132568 53.72166443 279.7923584 C57.41253987 279.71351259 61.10360069 279.64579278 64.79467773 279.57714844 C67.4846333 279.52555052 70.17442549 279.46825824 72.86425781 279.41064453 C73.70589981 279.39706909 74.54754181 279.38349365 75.41468811 279.36950684 C79.22939048 279.65332138 79.22939048 279.65332138 82.42285156 278.12939453 C82.78371669 275.78547699 83.08950128 273.45678468 83.36035156 271.10205078 C83.44534912 270.39793564 83.53034668 269.6938205 83.61791992 268.96836853 C83.89032044 266.71001128 84.15715326 264.45104948 84.42285156 262.19189453 C84.68874763 259.93633754 84.95593027 257.6809794 85.2277832 255.4261322 C85.39718312 254.02092579 85.56313523 252.61529869 85.7253418 251.20924377 C86.31021957 246.35465851 86.31021957 246.35465851 87.42285156 244.12939453 C86.27185974 244.13827698 85.12086792 244.14715942 83.93499756 244.15631104 C73.04884401 244.23765781 62.16275273 244.29748476 51.27636337 244.33664322 C45.68053191 244.35745228 40.08494727 244.38564727 34.48925781 244.43115234 C29.08164315 244.47484907 23.67426481 244.4985818 18.26648712 244.5089035 C16.21096328 244.51625228 14.15545129 244.53060195 12.10002899 244.55231476 C-2.61999513 244.70152389 -15.28634531 244.54261011 -26.44433594 233.70751953 C-32.61263199 226.25133749 -34.72675254 217.99956861 -34.72431946 208.54722595 C-34.72799615 207.77977808 -34.73167283 207.01233021 -34.73546094 206.22162634 C-34.7464813 203.64782549 -34.75033885 201.07406504 -34.75415039 198.50024414 C-34.76041639 196.65545524 -34.76706332 194.81066761 -34.77406311 192.96588135 C-34.79509345 186.90450925 -34.80546604 180.84313693 -34.81542969 174.78173828 C-34.81947793 172.69309539 -34.82359487 170.60445263 -34.82777977 168.51581001 C-34.8468309 158.70045844 -34.86106087 148.88511437 -34.86939174 139.06974787 C-34.87915766 127.75121817 -34.90546072 116.43288438 -34.94589263 105.11442369 C-34.97609104 96.35925252 -34.99086424 87.60413738 -34.99417275 78.84891516 C-34.9965194 73.62325284 -35.00542949 68.39779983 -35.03063393 63.17219353 C-35.05398414 58.25145348 -35.05811996 53.3310595 -35.04787254 48.41027832 C-35.04737873 46.61043201 -35.05365343 44.81056827 -35.06742859 43.01077461 C-35.1670782 29.21188083 -34.03371834 18.6885859 -24.02246094 8.29736328 C-16.55268548 1.67479878 -9.77156827 -0.02418011 0 0 Z M-10.57714844 29.12939453 C-11.69532494 32.48392404 -11.70018925 34.99059921 -11.69740295 38.52641296 C-11.69825897 39.17668961 -11.69911499 39.82696625 -11.69999695 40.49694824 C-11.70165441 42.68655116 -11.69612482 44.87607788 -11.69067383 47.06567383 C-11.69036756 48.65799615 -11.69050087 50.25031861 -11.69103909 51.84264088 C-11.69126514 56.11259658 -11.68546296 60.38252435 -11.67842865 64.65247345 C-11.67274007 68.65702911 -11.67246587 72.66157792 -11.67175293 76.6661377 C-11.66650246 88.38306035 -11.65254135 100.09997779 -11.63964844 111.81689453 C-11.61902344 137.99001953 -11.59839844 164.16314453 -11.57714844 191.12939453 C72.90285156 191.12939453 157.38285156 191.12939453 244.42285156 191.12939453 C244.48472656 165.55439453 244.54660156 139.97939453 244.61035156 113.62939453 C244.63766357 105.55792969 244.66497559 97.48646484 244.69311523 89.17041016 C244.70314935 81.92694284 244.70314935 81.92694284 244.70918274 74.68347168 C244.7119745 71.46042672 244.72320419 68.23753042 244.73957825 65.01452637 C244.76021044 60.89861637 244.76631492 56.78292144 244.76206839 52.66696453 C244.7629559 51.15939981 244.76887238 49.6518273 244.78049695 48.14430714 C245.20691196 35.98547719 245.20691196 35.98547719 239.91934395 25.45181274 C235.98790864 23.36929021 232.13306847 23.70988828 227.7502594 23.73498535 C226.75806631 23.72889425 225.76587321 23.72280314 224.74361366 23.71652746 C221.4094454 23.69984046 218.07565666 23.70468147 214.74145508 23.70947266 C212.35491538 23.70213568 209.96837923 23.69355054 207.58184814 23.68380737 C201.76668864 23.66385805 195.9516469 23.65821287 190.13645572 23.65999526 C185.41022734 23.6613025 180.68403007 23.6575007 175.95780754 23.65007019 C174.59681875 23.64797102 173.23582995 23.64587341 171.87484115 23.64377737 C171.19745661 23.64273384 170.52007206 23.64169032 169.82216071 23.64061517 C157.00929084 23.62171029 144.19647821 23.62276381 131.38360017 23.62958449 C119.66009672 23.63516078 107.93681175 23.61433145 96.21335936 23.58122402 C84.17742766 23.54749776 72.14160065 23.5323173 60.1056208 23.53694105 C53.34761645 23.53918676 46.58981406 23.53392803 39.83185005 23.50904846 C33.4780044 23.48684646 27.12461463 23.48860501 20.77076721 23.50897598 C18.43626492 23.51239754 16.10173232 23.50724803 13.76727104 23.4929924 C10.58511938 23.47489821 7.40453049 23.48747688 4.22242737 23.50793457 C2.83011574 23.4891578 2.83011574 23.4891578 1.40967661 23.4700017 C-4.29182843 23.5488212 -7.00792973 24.28143871 -10.57714844 29.12939453 Z " fill="#FAFAFA" transform="translate(176.5771484375,344.87060546875)"/>
<path d="M0 0 C1.57973099 -0.01418472 1.57973099 -0.01418472 3.19137573 -0.02865601 C4.90673019 -0.01954697 4.90673019 -0.01954697 6.65673828 -0.01025391 C8.44013107 -0.01455917 8.44013107 -0.01455917 10.259552 -0.01895142 C12.78990146 -0.0209971 15.32026654 -0.01543222 17.85058594 -0.00292969 C21.64963236 0.01286179 25.44757268 -0.00262792 29.24658203 -0.02197266 C56.39926197 -0.04603292 81.82545922 1.50026787 102.66064453 20.99365234 C120.94206205 40.9696041 123.0536978 67.99267061 122.0859375 93.84667969 C120.68633144 115.03946205 113.63278722 133.95377572 97.85205078 148.38818359 C94.66024818 151.01330804 91.40311172 153.27796847 87.85205078 155.38818359 C87.08634766 155.84708984 86.32064453 156.30599609 85.53173828 156.77880859 C74.67864319 162.72472868 61.70378958 165.49000748 49.39770508 165.53344727 C48.16340256 165.53982712 46.92910004 165.54620697 45.65739441 165.55278015 C44.3436232 165.55389297 43.02985199 165.5550058 41.67626953 165.55615234 C40.30100979 165.55936941 38.92575038 165.56273381 37.55049133 165.5662384 C34.68184616 165.57219927 31.813231 165.57408112 28.94458008 165.57348633 C25.26464711 165.57338412 21.58490453 165.58711017 17.9050169 165.60425854 C15.07150887 165.61535178 12.23804757 165.61740647 9.40452003 165.6168766 C8.04690702 165.61805792 6.68929285 165.62248818 5.33170128 165.63020897 C3.44096729 165.63996733 1.55017698 165.63587738 -0.34057617 165.63110352 C-1.41644485 165.63252853 -2.49231354 165.63395355 -3.6007843 165.63542175 C-6.14794922 165.38818359 -6.14794922 165.38818359 -8.14794922 163.38818359 C-8.40242481 160.65168858 -8.40242481 160.65168858 -8.40864563 157.09364319 C-8.41247118 156.44068266 -8.41629672 155.78772213 -8.4202382 155.11497492 C-8.43059478 152.91698254 -8.42657113 150.7192501 -8.42260742 148.52124023 C-8.42695245 146.94947568 -8.43213489 145.37771324 -8.43809509 143.80595398 C-8.45151914 139.52912413 -8.45205998 135.25238246 -8.44953179 130.97553563 C-8.44846436 127.40926473 -8.45333962 123.84301184 -8.45813721 120.27674478 C-8.46924424 111.86539111 -8.46966314 103.45408208 -8.46362305 95.04272461 C-8.45758144 86.35625404 -8.46989624 77.66994538 -8.49119312 68.98350245 C-8.50878839 61.53378484 -8.51481375 54.08411886 -8.51155537 46.63438123 C-8.50973901 42.18140638 -8.51241369 37.728547 -8.52626991 33.2755909 C-8.53880997 29.08869185 -8.53694066 24.90204582 -8.52385902 20.71515083 C-8.52148529 19.17641618 -8.52425631 17.63766393 -8.53248215 16.09894943 C-8.54288472 14.00223856 -8.53490256 11.90638689 -8.52217102 9.80970764 C-8.52233876 8.63517564 -8.5225065 7.46064363 -8.52267933 6.25051975 C-8.14794922 3.38818359 -8.14794922 3.38818359 -6.77114964 1.51064777 C-4.47108256 -0.07987849 -2.78226718 0.0071804 0 0 Z " fill="#FBFBFB" transform="translate(500.14794921875,398.61181640625)"/>
<path d="M0 0 C1.08237442 0.00800125 2.16474884 0.0160025 3.27992249 0.02424622 C5.04413795 0.06022163 5.04413795 0.06022163 6.84399414 0.09692383 C8.69576515 0.11676582 8.69576515 0.11676582 10.58494568 0.13700867 C13.23446826 0.16647738 15.88336578 0.20118418 18.53265381 0.24383545 C22.58444563 0.30705913 26.63604114 0.33750635 30.68823242 0.36108398 C36.79977671 0.39861686 42.9106673 0.4594596 49.02179909 0.53972054 C52.49840125 0.58510714 55.97485404 0.62437688 59.45166016 0.65039062 C63.55409423 0.68123688 67.65589366 0.73582991 71.75805664 0.79223633 C73.01090958 0.79862625 74.26376251 0.80501617 75.55458069 0.81159973 C76.70526535 0.83139389 77.85595001 0.85118805 79.04150391 0.87158203 C80.05181168 0.88268509 81.06211945 0.89378815 82.1030426 0.90522766 C84.62915039 1.30395508 84.62915039 1.30395508 86.45411682 2.67497253 C88.15628229 5.03473306 88.01752791 6.85567729 88.02758789 9.74145508 C88.03145508 10.80106445 88.03532227 11.86067383 88.03930664 12.95239258 C88.02770508 14.0584082 88.01610352 15.16442383 88.00415039 16.30395508 C88.01575195 17.4099707 88.02735352 18.51598633 88.03930664 19.65551758 C88.03543945 20.71512695 88.03157227 21.77473633 88.02758789 22.86645508 C88.0242041 23.83711914 88.02082031 24.8077832 88.01733398 25.80786133 C87.54930678 28.81736453 87.04745054 29.5032715 84.62915039 31.30395508 C81.99055481 31.7026825 81.99055481 31.7026825 78.78076172 31.73632812 C76.97923393 31.76601936 76.97923393 31.76601936 75.14131165 31.79631042 C73.84436874 31.80270035 72.54742584 31.80909027 71.21118164 31.81567383 C69.87023773 31.83251967 68.52930963 31.85066979 67.18840027 31.87007141 C63.66212908 31.91758866 60.13592195 31.94738641 56.60943604 31.97351074 C53.00975988 32.00330788 49.41030007 32.04967938 45.81079102 32.0949707 C38.75022624 32.18259099 31.69018628 32.24251792 24.62915039 32.30395508 C24.29915039 43.85395508 23.96915039 55.40395508 23.62915039 67.30395508 C27.4924707 67.26915039 31.35579102 67.2343457 35.33618164 67.19848633 C39.06932842 67.17510399 42.8024671 67.15687981 46.53564453 67.13916016 C49.13431436 67.12405444 51.73295862 67.10356874 54.33154297 67.07763672 C58.06231997 67.04133265 61.79276052 67.0242465 65.52368164 67.01098633 C66.68938187 66.99550247 67.85508209 66.98001862 69.05610657 66.96406555 C70.67744759 66.96372566 70.67744759 66.96372566 72.33154297 66.96337891 C73.28418533 66.95671707 74.2368277 66.95005524 75.21833801 66.94319153 C77.62915039 67.30395508 77.62915039 67.30395508 79.4369812 68.66824341 C81.16722902 71.04222403 81.00131577 72.86477852 80.99243164 75.77661133 C80.99146484 77.37279297 80.99146484 77.37279297 80.99047852 79.0012207 C80.97436523 80.11174805 80.95825195 81.22227539 80.94165039 82.36645508 C80.94487305 83.48084961 80.9480957 84.59524414 80.95141602 85.7434082 C80.89609178 94.03701369 80.89609178 94.03701369 78.62915039 96.30395508 C76.26266479 96.54446411 76.26266479 96.54446411 73.26147461 96.53100586 C71.57995804 96.53077927 71.57995804 96.53077927 69.86447144 96.5305481 C68.64986237 96.52022552 67.4352533 96.50990295 66.18383789 96.49926758 C64.94368927 96.49643768 63.70354065 96.49360779 62.42581177 96.49069214 C59.12790407 96.48137682 55.83019067 96.46340397 52.53234863 96.44128418 C49.16750513 96.42082982 45.80263236 96.41158179 42.43774414 96.40161133 C35.83472408 96.38121905 29.23218743 96.34207396 22.62915039 96.30395508 C22.62915039 109.17395508 22.62915039 122.04395508 22.62915039 135.30395508 C27.0699707 135.26915039 31.51079102 135.2343457 36.08618164 135.19848633 C39.62513729 135.17919602 43.1640781 135.16292674 46.70305634 135.14870453 C50.44000278 135.13285654 54.17674542 135.11167573 57.91357422 135.07763672 C61.51214813 135.04506189 65.11052428 135.02710614 68.70923424 135.01932335 C70.08279217 135.0137764 71.45633917 135.00294456 72.829813 134.98676491 C74.75215746 134.96501832 76.67470054 134.96372991 78.59716797 134.96337891 C79.69192947 134.95671707 80.78669098 134.95005524 81.91462708 134.94319153 C84.62915039 135.30395508 84.62915039 135.30395508 86.48188782 136.66349792 C88.17618429 139.08615237 88.01779358 141.02937324 88.02758789 143.96020508 C88.03145508 145.06493164 88.03532227 146.1696582 88.03930664 147.30786133 C88.02770508 148.46157227 88.01610352 149.6152832 88.00415039 150.80395508 C88.01575195 151.95766602 88.02735352 153.11137695 88.03930664 154.30004883 C88.03543945 155.40477539 88.03157227 156.50950195 88.02758789 157.64770508 C88.0242041 158.66026367 88.02082031 159.67282227 88.01733398 160.71606445 C87.56205831 163.75123562 86.98786542 164.43041298 84.62915039 166.30395508 C81.64757031 166.60550038 78.8740909 166.72390496 75.89086914 166.70800781 C74.99792145 166.71487106 74.10497375 166.72173431 73.18496704 166.72880554 C70.22870047 166.74713062 67.27296165 166.74322827 64.31665039 166.73754883 C62.26546047 166.74210758 60.21427209 166.74741223 58.16308594 166.75343323 C53.86232298 166.76237533 49.5617456 166.75992832 45.26098633 166.75 C39.74242963 166.73850343 34.22451213 166.75872697 28.70603943 166.78791714 C24.46988845 166.80623865 20.23389182 166.80599487 15.99771118 166.80027962 C13.96268822 166.80012594 11.9276551 166.80620875 9.89266968 166.81857109 C7.05051224 166.83340453 4.20955094 166.82286096 1.36743164 166.80566406 C0.10027817 166.82016602 0.10027817 166.82016602 -1.19247437 166.83496094 C-6.89999314 166.76243322 -6.89999314 166.76243322 -9.08745956 164.63247299 C-10.68237694 161.73873566 -10.74307834 159.84489795 -10.73834229 156.54646301 C-10.74391144 155.3707222 -10.74948059 154.19498138 -10.75521851 152.98361206 C-10.74600372 151.69689606 -10.73678894 150.41018005 -10.72729492 149.08447266 C-10.72808606 147.71246714 -10.73018413 146.34046185 -10.73348999 144.96846008 C-10.73862683 141.24029494 -10.725075 137.51240565 -10.70796299 133.78428483 C-10.69289451 129.86845987 -10.69409991 125.95263804 -10.69329834 122.03678894 C-10.68960324 115.44684167 -10.67463774 108.85699837 -10.65209961 102.26708984 C-10.62339099 93.85686058 -10.61288968 85.44671572 -10.60841751 77.03644276 C-10.60440466 69.76387265 -10.59189656 62.49132026 -10.57807064 55.21876311 C-10.57400767 52.90481784 -10.57106357 50.59087316 -10.56827545 48.27692604 C-10.55491035 38.95175176 -10.50683058 29.62830261 -10.37084961 20.30395508 C-10.3566246 19.31695492 -10.3423996 18.32995476 -10.32774353 17.3130455 C-10.28024879 14.85861279 -10.20377575 12.4080401 -10.1081543 9.95507812 C-10.06358093 8.70607224 -10.01900757 7.45706635 -9.9730835 6.17021179 C-9.37084961 3.30395508 -9.37084961 3.30395508 -7.66044617 1.40725708 C-4.90171191 0.0778888 -3.05914286 -0.04442613 0 0 Z " fill="#FAF9FA" transform="translate(653.370849609375,398.696044921875)"/>
<path d="M0 0 C1.28086353 -0.00701996 1.28086353 -0.00701996 2.58760309 -0.01418173 C5.45972203 -0.02618386 8.33136841 -0.01665419 11.20349121 -0.00723267 C13.25815612 -0.01129605 15.31281885 -0.01663661 17.36747742 -0.02316284 C22.95622017 -0.03686997 28.54479727 -0.03152377 34.13354301 -0.02202559 C39.97379895 -0.01444657 45.8140404 -0.0214697 51.65429688 -0.02618408 C61.46320144 -0.03164677 71.27203832 -0.02443656 81.08093262 -0.01016235 C92.43207871 0.00616511 103.78306317 0.00087696 115.13420534 -0.01564157 C124.86842883 -0.02924182 134.60260356 -0.03118325 144.33683348 -0.02332556 C150.15576039 -0.01864101 155.97461125 -0.01804566 161.79353333 -0.02793503 C167.26330977 -0.03658116 172.7328772 -0.03062589 178.202631 -0.01325226 C180.2138414 -0.00927481 182.2250693 -0.01044283 184.23627281 -0.01704025 C186.97440563 -0.02519624 189.71186187 -0.01500649 192.44995117 0 C193.25237448 -0.00669217 194.05479779 -0.01338433 194.88153696 -0.02027929 C200.23541818 0.03692832 200.23541818 0.03692832 202.71793461 1.78144646 C204.01515802 3.84185382 204.11147734 5.19080762 204.12902832 7.6211853 C204.14805458 8.8976593 204.14805458 8.8976593 204.16746521 10.19992065 C204.16452957 11.11559814 204.16159393 12.03127563 204.15856934 12.97470093 C204.16381119 13.917771 204.16905304 14.86084106 204.17445374 15.83248901 C204.18087705 17.82633479 204.17953295 19.82021845 204.17102051 21.8140564 C204.16250724 24.8695905 204.19127282 27.92325772 204.22302246 30.97860718 C204.22463442 32.91480453 204.22405704 34.85100521 204.22106934 36.78720093 C204.23230331 37.70287842 204.24353729 38.61855591 204.25511169 39.5619812 C204.24573074 40.41296387 204.23634979 41.26394653 204.22668457 42.14071655 C204.2265184 42.88889648 204.22635223 43.63707642 204.22618103 44.40792847 C203.72497559 46.38095093 203.72497559 46.38095093 202.21598244 47.98003483 C198.67544285 49.97119712 195.32295945 49.79850899 191.36766052 49.76863098 C190.51698063 49.77401652 189.66630074 49.77940206 188.78984267 49.78495079 C185.93465915 49.7992773 183.07993618 49.79211516 180.22473145 49.78500366 C178.17977016 49.79070469 176.13481206 49.79766791 174.08985901 49.80580139 C168.53217473 49.82377518 162.97464796 49.82255675 157.41694331 49.81685901 C152.78187655 49.81377397 148.14684035 49.8198518 143.51177794 49.82589775 C132.58143462 49.83995457 121.65116944 49.8383714 110.7208252 49.82699585 C99.43153994 49.81550664 88.14249203 49.82960127 76.85323805 49.85639232 C67.16994643 49.8785147 57.48672951 49.88519473 47.8034144 49.87931591 C42.01577068 49.87593766 36.22827921 49.87841917 30.44065666 49.89556694 C25.00119043 49.91097942 19.56207734 49.90714408 14.12262535 49.8882618 C12.12269918 49.88456041 10.12274716 49.88772914 8.1228447 49.89814758 C5.39991896 49.91125328 2.67818047 49.89990353 -0.04469299 49.88215637 C-0.84254324 49.89176138 -1.64039348 49.90136639 -2.462421 49.91126245 C-7.79547125 49.8393719 -7.79547125 49.8393719 -10.26561069 47.47808266 C-11.37741458 45.16822778 -11.65483539 43.6734313 -11.66320801 41.11898804 C-11.67266449 40.28810165 -11.68212097 39.45721527 -11.69186401 38.60115051 C-11.68275497 37.26818687 -11.68275497 37.26818687 -11.67346191 35.90829468 C-11.67633209 34.9888356 -11.67920227 34.06937653 -11.68215942 33.12205505 C-11.68419834 31.18124779 -11.67868056 29.2404199 -11.6661377 27.2996521 C-11.65006324 24.32563496 -11.66600166 21.35297305 -11.68518066 18.3789978 C-11.68319856 16.49292709 -11.67935557 14.60685722 -11.67346191 12.72079468 C-11.67953461 11.83012802 -11.6856073 10.93946136 -11.69186401 10.02180481 C-11.68240753 9.19407059 -11.67295105 8.36633636 -11.66320801 7.51351929 C-11.66082123 6.78612045 -11.65843445 6.05872162 -11.65597534 5.3092804 C-10.4562327 -0.7636779 -5.0982997 -0.04251953 0 0 Z " fill="#FBFBFB" transform="translate(197.2750244140625,385.6190490722656)"/>
<path d="M0 0 C0.6819191 -0.00095673 1.3638382 -0.00191345 2.06642151 -0.00289917 C3.51148572 -0.00358089 4.95655297 -0.00172719 6.40161133 0.00244141 C8.61611818 0.00778166 10.83042144 0.00250045 13.04492188 -0.00390625 C14.44661503 -0.00324531 15.84830806 -0.00196381 17.25 0 C18.53189209 0.00112793 19.81378418 0.00225586 21.13452148 0.00341797 C24.19140625 0.1328125 24.19140625 0.1328125 26.19140625 1.1328125 C25.67768028 9.05781443 23.51820917 15.99758743 20.9921875 23.5 C20.56038294 24.80383292 20.12939755 26.10793737 19.69917297 27.41229248 C18.78518557 30.17788708 17.86581555 32.94160632 16.94195557 35.70391846 C15.48751434 40.05280907 14.0451992 44.40565927 12.60498047 48.75927734 C10.91865617 53.85470239 9.22994757 58.94932112 7.53757858 64.04274178 C4.19839944 74.09404711 0.90428886 84.15960422 -2.36398315 94.23419189 C-3.17974497 96.74596191 -3.99869068 99.25667206 -4.81860352 101.76708984 C-7.51680207 110.03488837 -10.18811866 118.31026663 -12.81613159 126.60067749 C-14.18177955 130.90300788 -15.55777691 135.2019944 -16.93487549 139.50067139 C-17.59483105 141.5703982 -18.24983265 143.6417119 -18.89959717 145.71466064 C-19.79705401 148.57688502 -20.71110324 151.43330898 -21.62890625 154.2890625 C-21.89185486 155.14305634 -22.15480347 155.99705017 -22.42572021 156.87692261 C-23.46944322 160.07965674 -24.33536282 162.57492716 -26.52685547 165.15844727 C-29.81904547 166.56430328 -32.97608342 166.58094989 -36.49609375 166.56640625 C-37.60537231 166.57426903 -37.60537231 166.57426903 -38.73706055 166.58229065 C-40.29702501 166.58869997 -41.85703788 166.58738792 -43.41699219 166.57885742 C-45.80100606 166.57033961 -48.18262852 166.59913142 -50.56640625 166.63085938 C-52.0846347 166.6324714 -53.60286738 166.63189383 -55.12109375 166.62890625 C-55.83160889 166.64014023 -56.54212402 166.65137421 -57.27416992 166.66294861 C-60.32429395 166.62008212 -62.34671817 166.47437393 -64.83296204 164.63577271 C-67.53518134 161.21228677 -68.61984172 157.70894998 -69.93041992 153.58374023 C-70.21611438 152.71807717 -70.50180883 151.85241411 -70.7961607 150.96051884 C-71.74276698 148.08276699 -72.67208825 145.19973261 -73.6015625 142.31640625 C-74.26658216 140.28378287 -74.9327108 138.25152202 -75.59988403 136.21960449 C-77.0132207 131.9077444 -78.41910943 127.59355724 -79.81900024 123.27731323 C-81.99089631 116.58084291 -84.17879596 109.88967792 -86.36987305 103.19946289 C-88.88570208 95.51463039 -91.39827195 87.82875264 -93.90562534 80.14115047 C-98.58007849 65.81067586 -103.30131613 51.49653509 -108.07632446 37.19924927 C-109.09434916 34.15040877 -110.10929589 31.10055746 -111.1237793 28.05053711 C-111.72294838 26.25367807 -112.32229908 24.45687958 -112.921875 22.66015625 C-113.17663605 21.89384888 -113.43139709 21.1275415 -113.69387817 20.3380127 C-113.93194183 19.62697388 -114.17000549 18.91593506 -114.4152832 18.18334961 C-114.64003326 17.51101288 -114.86478333 16.83867615 -115.09634399 16.14596558 C-115.59317787 14.74167916 -116.12708421 13.35019964 -116.68856812 11.9704895 C-119.1423339 5.94050999 -119.1423339 5.94050999 -117.80859375 2.1328125 C-116.80859375 1.1328125 -116.80859375 1.1328125 -113.66577148 1.01928711 C-112.27456678 1.01944617 -110.88335614 1.02513744 -109.4921875 1.03515625 C-108.76113297 1.0365712 -108.03007843 1.03798615 -107.27687073 1.03944397 C-104.93323743 1.04505842 -102.58969836 1.05761328 -100.24609375 1.0703125 C-98.66080867 1.07532564 -97.07552209 1.07988887 -95.49023438 1.08398438 C-91.59631765 1.09503253 -87.7024717 1.11230678 -83.80859375 1.1328125 C-81.15556482 7.86239705 -79.1035768 14.69930216 -77.10546875 21.6484375 C-76.75056366 22.87385757 -76.39565857 24.09927765 -76.02999878 25.36183167 C-75.26655123 27.99792862 -74.50505459 30.63457879 -73.74493408 33.27163696 C-72.55051253 37.41397633 -71.3484961 41.55409184 -70.14599609 45.6940918 C-66.54237186 58.11154321 -62.96055203 70.53414769 -59.4810791 82.98703003 C-58.12645255 87.83238584 -56.76069143 92.67457468 -55.39465332 97.51672363 C-54.75476227 99.79954086 -54.12119629 102.08414066 -53.49401855 104.3704834 C-52.62684341 107.53134201 -51.73953118 110.68588193 -50.84765625 113.83984375 C-50.59732635 114.77534561 -50.34699646 115.71084747 -50.08908081 116.67469788 C-49.72521774 117.93944191 -49.72521774 117.93944191 -49.35400391 119.22973633 C-49.04905502 120.33155998 -49.04905502 120.33155998 -48.73794556 121.4556427 C-47.93006028 123.3502602 -47.93006028 123.3502602 -45.71200562 123.87675476 C-45.0838797 123.96125381 -44.45575378 124.04575287 -43.80859375 124.1328125 C-43.59307861 123.23594727 -43.37756348 122.33908203 -43.15551758 121.41503906 C-40.24944307 109.47988214 -36.89513904 97.68545435 -33.49609375 85.8828125 C-32.88683018 83.76200101 -32.27770218 81.64115057 -31.66870117 79.52026367 C-30.71297551 76.19294829 -29.75675777 72.86577759 -28.79920959 69.53898621 C-26.75480937 62.43522419 -24.72216795 55.32821496 -22.69822693 48.21859741 C-21.33914542 43.44723865 -19.97514703 38.67729367 -18.61026001 33.90759277 C-17.95381268 31.60989547 -17.29931417 29.31164044 -16.64682007 27.01281738 C-15.73360784 23.79730201 -14.81298491 20.58399515 -13.890625 17.37109375 C-13.48833176 15.94465294 -13.48833176 15.94465294 -13.07791138 14.48939514 C-8.89513167 0.00783367 -8.89513167 0.00783367 0 0 Z " fill="#FAFAFA" transform="translate(876.80859375,398.8671875)"/>
<path d="M0 0 C14.70212583 0.15614133 29.13076511 2.04215666 40.21020508 12.48535156 C51.38480033 23.99085738 51.31756042 41.51733291 51.13598633 56.58300781 C50.76683214 70.19385963 48.05951709 83.66430044 38.80004883 94.18847656 C27.79377101 104.10622141 11.66999203 104.59077498 -2.32495117 104.37597656 C-3.46319336 104.36695313 -4.60143555 104.35792969 -5.77416992 104.34863281 C-8.54132999 104.32537937 -11.30801878 104.29270524 -14.07495117 104.25097656 C-14.09807187 90.83871863 -14.11586486 77.4264654 -14.12676334 64.01419163 C-14.13199277 57.78704184 -14.1390915 51.55990564 -14.15039062 45.33276367 C-14.16121738 39.32870792 -14.16722755 33.32466527 -14.16982841 27.32060051 C-14.17168305 25.02436046 -14.17530438 22.72812117 -14.18068123 20.43188667 C-14.18788885 17.22776842 -14.18894223 14.02370506 -14.18847656 10.81958008 C-14.19207184 9.86004929 -14.19566711 8.90051849 -14.19937134 7.91191101 C-14.19799667 7.04387848 -14.19662201 6.17584595 -14.19520569 5.2815094 C-14.19612748 4.52287377 -14.19704927 3.76423815 -14.197999 2.98261356 C-13.83844494 -2.07734669 -3.75247474 0.00121646 0 0 Z " fill="#111111" transform="translate(538.074951171875,429.7490234375)"/>
<path d="M0 0 C0.96780396 -0.00938095 1.93560791 -0.0187619 2.93273926 -0.02842712 C4.490672 -0.01157616 4.490672 -0.01157616 6.08007812 0.00561523 C7.15253784 0.00416 8.22499756 0.00270477 9.32995605 0.00120544 C11.59613768 0.00286454 13.86233055 0.0144269 16.12841797 0.03515625 C19.59846832 0.06410171 23.06699033 0.05576647 26.53710938 0.04272461 C28.73893972 0.04896229 30.94076524 0.05735345 33.14257812 0.06811523 C34.18119995 0.0651796 35.21982178 0.06224396 36.28991699 0.05921936 C37.25772095 0.07190353 38.2255249 0.08458771 39.22265625 0.09765625 C40.07218872 0.10305923 40.92172119 0.10846222 41.79699707 0.11402893 C44.72498146 0.60450377 46.06191023 1.35155889 48.11132812 3.50170898 C48.60580444 5.93702698 48.60580444 5.93702698 48.59716797 8.859375 C48.60332123 9.95383438 48.60947449 11.04829376 48.61581421 12.17591858 C48.60144318 13.35721848 48.58707214 14.53851837 48.57226562 15.75561523 C48.57089096 17.57330666 48.57089096 17.57330666 48.56948853 19.42771912 C48.56344288 21.9907523 48.54766832 24.55377811 48.52294922 27.11669922 C48.48644195 31.05193951 48.48192974 34.98623895 48.48242188 38.92163086 C48.47259133 41.40796717 48.46093461 43.89429707 48.44726562 46.38061523 C48.44503998 47.56393936 48.44281433 48.74726349 48.44052124 49.96644592 C48.42776154 51.05775314 48.41500183 52.14906036 48.40185547 53.2734375 C48.39042007 54.71880638 48.39042007 54.71880638 48.37875366 56.19337463 C48.11132812 58.50170898 48.11132812 58.50170898 46.11132812 60.50170898 C43.91688538 60.7624054 43.91688538 60.7624054 41.15844727 60.77636719 C40.1272023 60.7858992 39.09595734 60.79543121 38.03346252 60.80525208 C36.35690834 60.80388496 36.35690834 60.80388496 34.64648438 60.80249023 C32.93011024 60.80891792 32.93011024 60.80891792 31.17906189 60.81547546 C28.75553042 60.82122682 26.33198169 60.82171313 23.90844727 60.81738281 C20.19257246 60.81422491 16.4774949 60.83766588 12.76171875 60.86303711 C10.4108083 60.86531015 8.0598957 60.86601358 5.70898438 60.86499023 C4.03546654 60.87880486 4.03546654 60.87880486 2.32814026 60.89289856 C1.29374313 60.88666977 0.25934601 60.88044098 -0.80639648 60.87402344 C-1.71747665 60.87465286 -2.62855682 60.87528229 -3.56724548 60.87593079 C-5.88867188 60.50170898 -5.88867188 60.50170898 -7.68106079 59.29983521 C-9.30264465 56.88530581 -9.27574395 55.25961798 -9.29272461 52.359375 C-9.30540878 51.31141251 -9.31809296 50.26345001 -9.3311615 49.18373108 C-9.32822586 48.05245285 -9.32529022 46.92117462 -9.32226562 45.75561523 C-9.32750748 44.59295639 -9.33274933 43.43029755 -9.33815002 42.23240662 C-9.34457764 39.77197061 -9.34322373 37.31150391 -9.3347168 34.85107422 C-9.32621286 31.08237044 -9.3549509 27.31518456 -9.38671875 23.54663086 C-9.38833092 21.15795944 -9.38775292 18.76928533 -9.38476562 16.38061523 C-9.3959996 15.25136124 -9.40723358 14.12210724 -9.41880798 12.95863342 C-9.40942703 11.90751877 -9.40004608 10.85640411 -9.39038086 9.7734375 C-9.39021469 8.84982925 -9.39004852 7.92622101 -9.38987732 6.97462463 C-8.32919308 1.74127634 -5.05345405 0.00098845 0 0 Z " fill="#FBFBFC" transform="translate(207.888671875,452.498291015625)"/>
<path d="M0 0 C1.37333496 -0.01062721 1.37333496 -0.01062721 2.77441406 -0.02146912 C4.28540428 -0.01775299 4.28540428 -0.01775299 5.82691956 -0.01396179 C6.88553192 -0.01907272 7.94414429 -0.02418365 9.03483582 -0.02944946 C12.54835093 -0.0433957 16.061671 -0.0423849 19.57521057 -0.04008484 C22.00897292 -0.043969 24.44273458 -0.04830308 26.87649536 -0.05307007 C31.98352758 -0.06054312 37.09049068 -0.06023314 42.19752502 -0.05497742 C48.75290683 -0.04918141 55.30800624 -0.06611196 61.86334133 -0.08932209 C66.89125227 -0.10403014 71.91909475 -0.10493512 76.94702339 -0.10181236 C79.36442181 -0.10232705 81.78182392 -0.10759224 84.19920158 -0.11762428 C87.57529603 -0.1299145 90.95083449 -0.12324136 94.32691956 -0.11161804 C95.33222214 -0.11926178 96.33752472 -0.12690552 97.37329102 -0.13478088 C98.29166748 -0.12776657 99.21004395 -0.12075226 100.15625 -0.11352539 C100.95469047 -0.11369313 101.75313093 -0.11386087 102.57576656 -0.1140337 C105.20905371 0.36362531 106.08192201 1.10602444 107.64161682 3.26069641 C108.40309023 10.11395705 108.40309023 10.11395705 106.24990845 13.35653687 C102.20445338 16.30988449 98.29987957 15.81054673 93.41285706 15.7624054 C91.85376114 15.77050987 91.85376114 15.77050987 90.26316833 15.77877808 C86.82522671 15.7912923 83.38811801 15.77475684 79.95021057 15.75679016 C77.5641475 15.75694507 75.17808418 15.75843276 72.79202271 15.76119995 C67.79100931 15.76258512 62.79028231 15.75000484 57.7893219 15.72724915 C51.37072291 15.69884917 44.95259937 15.70160461 38.53396511 15.71433926 C33.6072583 15.72128497 28.68066191 15.71352003 23.75396919 15.70108223 C21.38682033 15.69655805 19.01965965 15.69623932 16.65250969 15.70014763 C13.34841872 15.70304932 10.04498953 15.6866027 6.74098206 15.66474915 C5.75752304 15.66925079 4.77406403 15.67375244 3.76080322 15.6783905 C2.86214539 15.66848587 1.96348755 15.65858124 1.03759766 15.64837646 C0.25650352 15.64594657 -0.52459063 15.64351667 -1.32935429 15.64101315 C-3.89448862 15.16020998 -4.78604194 14.30985737 -6.35838318 12.26069641 C-6.72166443 9.85054016 -6.72166443 9.85054016 -6.67088318 7.19819641 C-6.66701599 6.32034485 -6.6631488 5.44249329 -6.65916443 4.53804016 C-6.08721273 0.20754873 -3.83350291 0.00986097 0 0 Z " fill="#FAFAFB" transform="translate(277.35838317871094,454.7393035888672)"/>
<path d="M0 0 C0.65725571 -0.00700928 1.31451141 -0.01401855 1.99168396 -0.02124023 C4.16423812 -0.03884458 6.33548924 -0.02718924 8.50805664 -0.01367188 C10.01876577 -0.01636646 11.5294732 -0.0202486 13.04017639 -0.02526855 C16.20696519 -0.03116711 19.37330272 -0.02259097 22.54003906 -0.00390625 C26.59683449 0.01886475 30.65257035 0.00577536 34.70932674 -0.01819611 C37.82951313 -0.03266152 40.94944902 -0.02804451 44.06964302 -0.01768494 C45.56515186 -0.01501866 47.06068352 -0.018284 48.5561657 -0.02760315 C50.64873183 -0.03777971 52.73959198 -0.0222554 54.83203125 0 C56.02211288 0.00318237 57.21219452 0.00636475 58.43833923 0.00964355 C62.07799851 0.61729698 63.25429763 1.633507 65.48071289 4.51757812 C65.97680664 6.51757812 65.97680664 6.51757812 65.91821289 8.51757812 C65.91692383 9.17757813 65.91563477 9.83757812 65.91430664 10.51757812 C65.32027756 13.25760415 64.46148346 14.51657894 62.48071289 16.51757812 C59.52062988 17.01878357 59.52062988 17.01878357 55.85375977 17.01928711 C55.1851442 17.02469009 54.51652863 17.03009308 53.82765198 17.03565979 C51.61780511 17.048166 49.4092564 17.03164558 47.19946289 17.01367188 C45.66393973 17.01382682 44.12841618 17.01531508 42.59289551 17.01808167 C39.37482412 17.01946649 36.15719797 17.00689429 32.93920898 16.98413086 C28.81295063 16.95574547 24.68743219 16.95848218 20.56111908 16.97122097 C17.39037754 16.97817396 14.21980721 16.97039332 11.04908752 16.95796394 C9.52764034 16.95344571 8.00617481 16.9531159 6.48472595 16.95702934 C4.35865569 16.95993797 2.2336072 16.94345337 0.10766602 16.92163086 C-1.10240112 16.91622787 -2.31246826 16.91082489 -3.5592041 16.90525818 C-6.51928711 16.51757812 -6.51928711 16.51757812 -8.40856934 15.12489319 C-9.86711943 13.01423143 -9.92009707 11.63096242 -9.89428711 9.08007812 C-9.90202148 8.31824219 -9.90975586 7.55640625 -9.91772461 6.77148438 C-8.84949959 0.72868206 -5.66860425 0.01516844 0 0 Z " fill="#F6F6F6" transform="translate(280.519287109375,481.482421875)"/>
<path d="M0 0 C1.06367294 0.00222061 2.12734589 0.00444122 3.22325134 0.00672913 C5.02500572 0.00684242 5.02500572 0.00684242 6.86315918 0.00695801 C8.17042465 0.01211929 9.47769012 0.01728058 10.8245697 0.02259827 C12.16835477 0.02446253 13.51214052 0.02588639 14.85592651 0.02688599 C18.39873622 0.0307105 21.94150515 0.0405402 25.48429871 0.05158997 C29.09706572 0.06180552 32.7098393 0.06638392 36.32261658 0.07142639 C43.41573225 0.08216254 50.50882019 0.09923816 57.60191345 0.12025452 C57.60191345 0.78025452 57.60191345 1.44025452 57.60191345 2.12025452 C54.9866956 3.42786344 53.07077945 3.24022999 50.1424408 3.23377991 C49.001409 3.23370438 47.8603772 3.23362885 46.68476868 3.23355103 C45.44828583 3.22838974 44.21180298 3.22322845 42.93785095 3.21791077 C41.67550629 3.21649582 40.41316162 3.21508087 39.11256409 3.21362305 C35.75553047 3.20896529 32.39856445 3.19997859 29.04154968 3.18891907 C25.61636449 3.17869222 22.19117212 3.17406794 18.76597595 3.16908264 C12.0445836 3.15888635 5.32330997 3.1393133 -1.39808655 3.12025452 C-1.39808655 13.35025452 -1.39808655 23.58025452 -1.39808655 34.12025452 C15.76191345 34.12025452 32.92191345 34.12025452 50.60191345 34.12025452 C50.93191345 34.78025452 51.26191345 35.44025452 51.60191345 36.12025452 C33.45191345 36.12025452 15.30191345 36.12025452 -3.39808655 36.12025452 C-3.41871155 30.36587952 -3.43933655 24.61150452 -3.46058655 18.68275452 C-3.46969055 16.86461243 -3.47879456 15.04647034 -3.48817444 13.17323303 C-3.49109366 11.7402097 -3.4936422 10.30718554 -3.4957428 8.87416077 C-3.50085876 8.12356384 -3.50597473 7.37296692 -3.51124573 6.59962463 C-3.51155647 4.7727785 -3.46039768 2.94603769 -3.39808655 1.12025452 C-2.39808655 0.12025452 -2.39808655 0.12025452 0 0 Z " fill="#191818" transform="translate(680.3980865478516,429.87974548339844)"/>
<path d="M0 0 C2.83203629 4.24805443 2.3302592 7.88111269 2.3125 12.875 C2.32861328 13.77347656 2.34472656 14.67195313 2.36132812 15.59765625 C2.36496294 20.51919884 2.28756751 24.04851983 -1 28 C-3.52744088 29.26372044 -5.26380308 29.12022795 -8.09228516 29.11352539 C-9.68370834 29.11341209 -9.68370834 29.11341209 -11.30728149 29.11329651 C-13.03076309 29.10555458 -13.03076309 29.10555458 -14.7890625 29.09765625 C-15.96262299 29.0962413 -17.13618347 29.09482635 -18.3453064 29.09336853 C-22.10522985 29.08775689 -25.86509445 29.07520238 -29.625 29.0625 C-32.16926998 29.0574865 -34.71354088 29.05292333 -37.2578125 29.04882812 C-43.50524943 29.03863322 -49.75255858 29.01905999 -56 29 C-56 40.22 -56 51.44 -56 63 C-56.99 63.495 -56.99 63.495 -58 64 C-58 51.79 -58 39.58 -58 27 C-51.95365234 26.90912109 -51.95365234 26.90912109 -45.78515625 26.81640625 C-42.57920569 26.76546942 -39.37327446 26.71354797 -36.16735077 26.66095734 C-32.77867386 26.60564023 -29.38998963 26.55207469 -26.0012207 26.50268555 C-22.11660573 26.44599054 -18.23214122 26.38142415 -14.34765625 26.31640625 C-12.51800072 26.29133751 -12.51800072 26.29133751 -10.65138245 26.26576233 C-9.53029587 26.24581711 -8.40920929 26.22587189 -7.25415039 26.20532227 C-6.26153702 26.18977798 -5.26892365 26.1742337 -4.24623108 26.15821838 C-2.03025703 26.24881556 -2.03025703 26.24881556 -1 25 C-0.84213692 23.14825294 -0.74892644 21.2909089 -0.68359375 19.43359375 C-0.62075195 17.7465332 -0.62075195 17.7465332 -0.55664062 16.02539062 C-0.51732422 14.84138672 -0.47800781 13.65738281 -0.4375 12.4375 C-0.37272461 10.65569336 -0.37272461 10.65569336 -0.30664062 8.83789062 C-0.20016454 5.89205216 -0.09815159 2.9461257 0 0 Z " fill="#070707" transform="translate(734,468)"/>
<path d="M0 0 C2.92587775 2.0560222 3.84701429 3.57703952 5.0625 6.9375 C5 10 5 10 2.9375 12.875 C0 15 0 15 -3 15.625 C-7.11289267 14.76814736 -8.59686932 13.42264067 -11 10 C-11.06641554 6.14789873 -10.87229157 4.00151995 -8.3125 1.0625 C-5.26397123 -0.33817538 -3.32073048 -0.4842732 0 0 Z " fill="#131212" transform="translate(217,403)"/>
<path d="M0 0 C3.84447528 0.70612811 5.4893383 1.61093216 8.0625 4.5625 C8.69984462 8.52819988 8.68249672 10.59530512 6.5 14 C3.12032196 16.16646028 1.00266013 16.12538002 -2.9375 15.5625 C-5.375 13.9375 -5.375 13.9375 -6.9375 11.5625 C-7.58600195 7.75255105 -7.21821139 6.05914323 -5.3125 2.6875 C-2.9375 0.5625 -2.9375 0.5625 0 0 Z " fill="#111010" transform="translate(239.9375,402.4375)"/>
<path d="M0 0 C1.8125 1.125 1.8125 1.125 3 3 C3.49891602 6.92005446 3.55253414 9.11594538 1.4375 12.5 C-1 14 -1 14 -4.625 13.875 C-8 13 -8 13 -10 11 C-10.57105775 3.80467229 -10.57105775 3.80467229 -8.625 1.0625 C-5.31575111 -1.10123966 -3.81679568 -1.11711093 0 0 Z " fill="#101010" transform="translate(270,404)"/>
<path d="M0 0 C1.01964844 -0.01224609 2.03929687 -0.02449219 3.08984375 -0.03710938 C4.55744141 -0.04000977 4.55744141 -0.04000977 6.0546875 -0.04296875 C6.95429199 -0.04707764 7.85389648 -0.05118652 8.78076172 -0.05541992 C11.125 0.1875 11.125 0.1875 14.125 2.1875 C-5.46959459 4.8902027 -5.46959459 4.8902027 -10.875 2.1875 C-10.875 3.8375 -10.875 5.4875 -10.875 7.1875 C-11.205 7.1875 -11.535 7.1875 -11.875 7.1875 C-11.91754356 5.18795254 -11.91580783 3.18708364 -11.875 1.1875 C-9.46387261 -1.22362739 -3.23934528 0.00203221 0 0 Z " fill="#1A1A1A" transform="translate(535.875,429.8125)"/>
<path d="M0 0 C1.95777344 6.12324885 -0.57991343 12.29551022 -3 18 C-3 18.66 -3 19.32 -3 20 C-3.99 20 -4.98 20 -6 20 C-4.22089072 13.24947898 -2.29561809 6.59379663 0 0 Z " fill="#1C1C1C" transform="translate(871,501)"/>
<path d="M0 0 C0.66 0 1.32 0 2 0 C3.10228696 4.40914783 3.07654536 8.48382401 3 13 C2.01 13 1.02 13 0 13 C0 8.71 0 4.42 0 0 Z " fill="#212021" transform="translate(489,403)"/>
<path d="M0 0 C6.53290083 0.6163114 6.53290083 0.6163114 8.75 2.4375 C9.36875 3.2109375 9.36875 3.2109375 10 4 C10.99 4.66 11.98 5.32 13 6 C12.67 6.99 12.34 7.98 12 9 C10.37327315 7.87749844 8.74867418 6.75191267 7.125 5.625 C5.76761719 4.68527344 5.76761719 4.68527344 4.3828125 3.7265625 C2 2 2 2 0 0 Z " fill="#181818" transform="translate(585,407)"/>
<path d="M0 0 C2 3 2 3 1.6875 5.5 C1.17901328 7.34904262 0.60642538 9.18072387 0 11 C-0.99 11 -1.98 11 -3 11 C-2.01 7.37 -1.02 3.74 0 0 Z " fill="#1E1D1D" transform="translate(897,421)"/>
<path d="M0 0 C1.98120645 2.97180967 2.65962579 4.51116436 3 8 C2.0625 10.3125 2.0625 10.3125 1 12 C-0.125 7.25 -0.125 7.25 1 5 C0.34 5 -0.32 5 -1 5 C-0.67 3.35 -0.34 1.7 0 0 Z " fill="#1E1E1E" transform="translate(796,518)"/>
<path d="M0 0 C0.33 0 0.66 0 1 0 C1.25 7.625 1.25 7.625 -1 11 C-2.26264601 6.70700357 -1.62950412 4.12168689 0 0 Z " fill="#212121" transform="translate(864,522)"/>
<path d="M0 0 C2.625 0.375 2.625 0.375 5 1 C4.67 2.32 4.34 3.64 4 5 C2.02 4.01 0.04 3.02 -2 2 C-1.34 1.34 -0.68 0.68 0 0 Z M-4 2 C-2 3 -2 3 -2 3 Z " fill="#1A1919" transform="translate(265,403)"/>
<path d="M0 0 C0.33 0 0.66 0 1 0 C1.25 7.625 1.25 7.625 -1 11 C-2.26264601 6.70700357 -1.62950412 4.12168689 0 0 Z " fill="#1D1C1C" transform="translate(882,467)"/>
</svg>
